<svg width="319" height="55" viewBox="0 0 319 55" fill="none" xmlns="http://www.w3.org/2000/svg">
<path d="M15.8284 18.0896L0 0H50.5V36.9328H0L15.8284 18.0896Z" fill="#70E000"/>
<path d="M302.246 17.7204L318.074 0H267.574V36.1791H318.074L302.246 17.7204Z" fill="#70E000"/>
<g filter="url(#filter0_dd_97_270)">
<path d="M42.9629 11V50.194H275.112V11H42.9629Z" fill="url(#paint0_linear_97_270)"/>
</g>
<path d="M77.9923 38.2C76.8923 38.22 76.2723 37.62 76.2723 36.52V23.9H79.4723V35.4L86.3323 35.2V38L77.9923 38.2ZM87.1418 32.94C87.1418 29.42 89.6618 27.7 92.8418 27.7C96.0018 27.7 98.5218 29.42 98.5218 32.94C98.5218 36.48 96.0018 38.2 92.8418 38.2C89.6618 38.2 87.1418 36.48 87.1418 32.94ZM90.3418 32.94C90.3418 34.64 91.3218 35.4 92.8418 35.4C94.3418 35.4 95.3218 34.64 95.3218 32.94C95.3218 31.26 94.3418 30.5 92.8418 30.5C91.3218 30.5 90.3418 31.26 90.3418 32.94ZM104.525 35.4L108.245 35.2V38L103.025 38.2C101.925 38.24 101.325 37.6 101.325 36.5V30.7H98.9246V27.9H101.325V26L104.525 25V27.9H107.845V30.7H104.525V35.4ZM114.446 35.4L118.166 35.2V38L112.946 38.2C111.846 38.24 111.246 37.6 111.246 36.5V30.7H108.846V27.9H111.246V26L114.446 25V27.9H117.766V30.7H114.446V35.4ZM118.958 32.82C118.958 29.62 121.138 27.7 124.278 27.7C127.418 27.7 129.618 29.56 129.618 32.62V33.62H121.958C121.958 34.78 122.798 35.6 124.618 35.6C125.738 35.6 126.578 35.2 126.778 34.44H129.978C129.778 35.9 128.118 38.2 124.618 38.2C120.738 38.2 118.958 35.68 118.958 32.82ZM121.958 31.82H126.618C126.618 31.06 126.058 30.3 124.278 30.3C122.498 30.3 121.958 31.06 121.958 31.82ZM131.37 38V29.42C131.37 28.32 131.99 27.72 133.09 27.74L139.71 27.9V30.7L134.57 30.58V38H131.37ZM149.336 27.9H152.956L148.336 37.4V40.52C148.336 41.64 147.716 42.24 146.616 42.2L141.676 42.06V39.26L145.136 39.32V37.4L140.516 27.9H144.116L146.336 33.46V35.06H147.136V33.46L149.336 27.9ZM162.939 38.2L159.359 38V35.2L162.939 35.4C165.279 35.54 165.459 33.94 165.459 31.52V26.5L161.219 26.7V23.9L166.959 23.7C168.059 23.66 168.659 24.3 168.659 25.4V32.6C168.659 36.58 167.459 38.46 162.939 38.2ZM170.071 35.24C170.071 33.5 171.111 32.48 174.111 32.06L177.291 31.62C177.291 30.8 176.651 30.3 175.271 30.3C173.991 30.3 173.271 30.84 173.271 31.76H170.271C170.271 29.2 172.451 27.7 175.271 27.7C178.051 27.7 180.491 29.04 180.491 32.36V35.2H181.951V38H179.731C178.771 38 178.231 37.46 178.231 36.5V36.3L178.731 35.1H177.931C177.551 36.78 176.571 38.2 173.751 38.2C170.611 38.2 170.071 36.28 170.071 35.24ZM173.271 34.64C173.271 35.22 173.831 35.4 174.371 35.4C176.131 35.4 177.291 34.66 177.291 33.42L174.711 33.78C173.751 33.92 173.271 34.06 173.271 34.64ZM182.552 32.94C182.552 29.58 184.852 27.7 188.072 27.7C190.832 27.7 193.352 29.2 193.492 32.08H190.292C190.172 31.18 189.352 30.5 188.072 30.5C186.552 30.5 185.752 31.4 185.752 32.94C185.752 34.5 186.552 35.4 188.072 35.4C189.352 35.4 190.172 34.72 190.292 33.82H193.492C193.352 36.7 190.832 38.2 188.072 38.2C184.852 38.2 182.552 36.32 182.552 32.94ZM202.63 38L200.11 34.1L197.89 35.14V38H194.69V23.3H197.89V31.84L202.51 29.72L202.47 27.9H205.67V30.1C205.67 31.06 205.29 31.68 204.41 32.1L202.85 32.82L206.27 38H202.63ZM207.464 27.9H210.664V28.52L210.064 30.32H210.864C211.384 28.98 212.344 27.7 214.844 27.7C217.764 27.7 219.224 30.1 219.224 32.96C219.224 35.82 217.764 38.2 214.844 38.2C212.344 38.2 211.384 36.92 210.864 35.58H210.064L210.664 37.38V41.8H207.464V27.9ZM210.664 32.96C210.664 34.68 211.624 35.4 213.344 35.4C215.064 35.4 216.024 34.68 216.024 32.96C216.024 31.24 215.064 30.5 213.344 30.5C211.624 30.5 210.664 31.24 210.664 32.96ZM220.228 32.94C220.228 29.42 222.748 27.7 225.928 27.7C229.088 27.7 231.608 29.42 231.608 32.94C231.608 36.48 229.088 38.2 225.928 38.2C222.748 38.2 220.228 36.48 220.228 32.94ZM223.428 32.94C223.428 34.64 224.408 35.4 225.928 35.4C227.428 35.4 228.408 34.64 228.408 32.94C228.408 31.26 227.428 30.5 225.928 30.5C224.408 30.5 223.428 31.26 223.428 32.94ZM237.611 35.4L241.331 35.2V38L236.111 38.2C235.011 38.24 234.411 37.6 234.411 36.5V30.7H232.011V27.9H234.411V26L237.611 25V27.9H240.931V30.7H237.611V35.4Z" fill="black" fill-opacity="0.8"/>
<defs>
<filter id="filter0_dd_97_270" x="37.9629" y="7" width="244.149" height="47.1941" filterUnits="userSpaceOnUse" color-interpolation-filters="sRGB">
<feFlood flood-opacity="0" result="BackgroundImageFix"/>
<feColorMatrix in="SourceAlpha" type="matrix" values="0 0 0 0 0 0 0 0 0 0 0 0 0 0 0 0 0 0 127 0" result="hardAlpha"/>
<feOffset dx="-2" dy="-1"/>
<feGaussianBlur stdDeviation="1.5"/>
<feComposite in2="hardAlpha" operator="out"/>
<feColorMatrix type="matrix" values="0 0 0 0 0 0 0 0 0 0 0 0 0 0 0 0 0 0 0.25 0"/>
<feBlend mode="normal" in2="BackgroundImageFix" result="effect1_dropShadow_97_270"/>
<feColorMatrix in="SourceAlpha" type="matrix" values="0 0 0 0 0 0 0 0 0 0 0 0 0 0 0 0 0 0 127 0" result="hardAlpha"/>
<feOffset dx="3"/>
<feGaussianBlur stdDeviation="2"/>
<feComposite in2="hardAlpha" operator="out"/>
<feColorMatrix type="matrix" values="0 0 0 0 0 0 0 0 0 0 0 0 0 0 0 0 0 0 0.25 0"/>
<feBlend mode="normal" in2="effect1_dropShadow_97_270" result="effect2_dropShadow_97_270"/>
<feBlend mode="normal" in="SourceGraphic" in2="effect2_dropShadow_97_270" result="shape"/>
</filter>
<linearGradient id="paint0_linear_97_270" x1="43" y1="24.5" x2="275" y2="23" gradientUnits="userSpaceOnUse">
<stop stop-color="#70E000"/>
<stop offset="0.182292" stop-color="#C1FF83"/>
<stop offset="0.385417" stop-color="#70E000"/>
<stop offset="0.604167" stop-color="#D4FFAA"/>
<stop offset="0.802083" stop-color="#70E000"/>
<stop offset="1" stop-color="#BCFF78"/>
</linearGradient>
</defs>
</svg>
